<svg width="21" height="21" viewBox="0 0 21 21" fill="none" xmlns="http://www.w3.org/2000/svg">
<path d="M10.5 20C11.0145 20 11.3806 19.6379 11.3806 19.1149V5.86817L11.2817 2.87083L10.7177 3.07199L14.2697 7.02487L16.5257 9.27791C16.6841 9.43884 16.9116 9.5193 17.149 9.5193C17.6438 9.5193 18 9.13709 18 8.64425C18 8.40284 17.9209 8.19162 17.7328 7.99046L11.1629 1.30175C10.9749 1.10058 10.7474 1 10.5 1C10.2526 1 10.0251 1.10058 9.83707 1.30175L3.27705 7.99046C3.08905 8.19162 3 8.40284 3 8.64425C3 9.13709 3.3562 9.5193 3.85092 9.5193C4.08839 9.5193 4.32585 9.43884 4.47428 9.27791L6.73021 7.02487L10.2724 3.07199L9.71833 2.87083L9.61938 5.86817V19.1149C9.61938 19.6379 9.98548 20 10.5 20Z" fill="#1C1C1E" fill-opacity="0.85"/>
</svg>
